<svg width="20" height="18" viewBox="0 0 20 18" fill="none" xmlns="http://www.w3.org/2000/svg">
<path fill-rule="evenodd" clip-rule="evenodd" d="M1 4H2V3H1V4Z" fill="#E82808"/>
<path fill-rule="evenodd" clip-rule="evenodd" d="M1 8H2V7H1V8Z" fill="#E82808"/>
<path fill-rule="evenodd" clip-rule="evenodd" d="M0 7H1V4H0V7Z" fill="#E82808"/>
<path fill-rule="evenodd" clip-rule="evenodd" d="M1.89999 3H3.79999V2H1.89999V3Z" fill="#E82808"/>
<path fill-rule="evenodd" clip-rule="evenodd" d="M1.89999 5H3.79999V4H1.89999V5Z" fill="#E82808"/>
<path fill-rule="evenodd" clip-rule="evenodd" d="M1.89999 7H3.79999V6H1.89999V7Z" fill="#E82808"/>
<path fill-rule="evenodd" clip-rule="evenodd" d="M1.89999 7H2.89999V5H1.89999V7Z" fill="#E82808"/>
<path fill-rule="evenodd" clip-rule="evenodd" d="M1.89999 4H3.79999V3H1.89999V4Z" fill="#FF4710"/>
<path fill-rule="evenodd" clip-rule="evenodd" d="M1.89999 8H4.79999V7H1.89999V8Z" fill="#FF4710"/>
<path fill-rule="evenodd" clip-rule="evenodd" d="M1 7H2V4H1V7Z" fill="#FF4710"/>
<path fill-rule="evenodd" clip-rule="evenodd" d="M14.3 5H15.3V1H14.3V5Z" fill="#FF4710"/>
<path fill-rule="evenodd" clip-rule="evenodd" d="M1.89999 9H4.79999V8H1.89999V9Z" fill="#E82808"/>
<path fill-rule="evenodd" clip-rule="evenodd" d="M18.1 4H19.1V3H18.1V4Z" fill="#E82808"/>
<path fill-rule="evenodd" clip-rule="evenodd" d="M18.1 8H19.1V7H18.1V8Z" fill="#E82808"/>
<path fill-rule="evenodd" clip-rule="evenodd" d="M19 7H20V4H19V7Z" fill="#E82808"/>
<path fill-rule="evenodd" clip-rule="evenodd" d="M16.2 3H18.1V2H16.2V3Z" fill="#E82808"/>
<path fill-rule="evenodd" clip-rule="evenodd" d="M16.2 5H18.1V4H16.2V5Z" fill="#E82808"/>
<path fill-rule="evenodd" clip-rule="evenodd" d="M16.2 7H18.1V6H16.2V7Z" fill="#E82808"/>
<path fill-rule="evenodd" clip-rule="evenodd" d="M17.1 7H18.1V5H17.1V7Z" fill="#E82808"/>
<path fill-rule="evenodd" clip-rule="evenodd" d="M16.2 4H18.1V3H16.2V4Z" fill="#FF4710"/>
<path fill-rule="evenodd" clip-rule="evenodd" d="M15.2 8H18.1V7H15.2V8Z" fill="#FF4710"/>
<path fill-rule="evenodd" clip-rule="evenodd" d="M18.1 7H19.1V4H18.1V7Z" fill="#FF4710"/>
<path fill-rule="evenodd" clip-rule="evenodd" d="M15.2 9H18.1V8H15.2V9Z" fill="#E82808"/>
<path fill-rule="evenodd" clip-rule="evenodd" d="M6.7 12H8.6V11H6.7V12Z" fill="#E82808"/>
<path fill-rule="evenodd" clip-rule="evenodd" d="M5.7 11H6.7V10H5.7V11Z" fill="#E82808"/>
<path fill-rule="evenodd" clip-rule="evenodd" d="M4.8 10H5.8V7H4.8V10Z" fill="#E82808"/>
<path fill-rule="evenodd" clip-rule="evenodd" d="M3.8 7H4.8V1H3.8V7Z" fill="#E82808"/>
<path fill-rule="evenodd" clip-rule="evenodd" d="M5.7 16H8.6V15H5.7V16Z" fill="#E82808"/>
<path fill-rule="evenodd" clip-rule="evenodd" d="M11.4 16H14.3V15H11.4V16Z" fill="#E82808"/>
<path fill-rule="evenodd" clip-rule="evenodd" d="M4.8 7H5.8V1H4.8V7Z" fill="#FF4710"/>
<path fill-rule="evenodd" clip-rule="evenodd" d="M5.7 10H6.7V1H5.7V10Z" fill="#FF4710"/>
<path fill-rule="evenodd" clip-rule="evenodd" d="M6.7 11H7.7V1H6.7V11Z" fill="#FF4710"/>
<path fill-rule="evenodd" clip-rule="evenodd" d="M5.7 6H6.7V3H5.7V6Z" fill="#F3EEFB"/>
<path fill-rule="evenodd" clip-rule="evenodd" d="M7.60001 11H8.60001V1H7.60001V11Z" fill="#FF4710"/>
<path fill-rule="evenodd" clip-rule="evenodd" d="M8.60001 12H9.60001V1H8.60001V12Z" fill="#FF4710"/>
<path fill-rule="evenodd" clip-rule="evenodd" d="M9.5 11H10.5V1H9.5V11Z" fill="#FF4710"/>
<path fill-rule="evenodd" clip-rule="evenodd" d="M10.5 16H11.5V15H10.5V16Z" fill="#E82808"/>
<path fill-rule="evenodd" clip-rule="evenodd" d="M8.60001 16H9.60001V15H8.60001V16Z" fill="#E82808"/>
<path fill-rule="evenodd" clip-rule="evenodd" d="M10.8 17.3H9.19999V17H5.39999V16H9.39999V15H10.9V16H14.8V17H10.6V17.3H10.8Z" fill="#FF4710"/>
<path fill-rule="evenodd" clip-rule="evenodd" d="M9.5 15H10.5V11H9.5V15Z" fill="#E82808"/>
<path fill-rule="evenodd" clip-rule="evenodd" d="M10.5 10H11.5V1H10.5V10Z" fill="#FF4710"/>
<path fill-rule="evenodd" clip-rule="evenodd" d="M11.4 9H12.4V1H11.4V9Z" fill="#FF4710"/>
<path fill-rule="evenodd" clip-rule="evenodd" d="M12.4 11H13.4V8H12.4V11Z" fill="#E82808"/>
<path fill-rule="evenodd" clip-rule="evenodd" d="M11.4 11H12.4V9H11.4V11Z" fill="#E82808"/>
<path fill-rule="evenodd" clip-rule="evenodd" d="M10.5 12H11.5V10H10.5V12Z" fill="#E82808"/>
<path fill-rule="evenodd" clip-rule="evenodd" d="M12.4 8H13.4V1H12.4V8Z" fill="#FF4710"/>
<path fill-rule="evenodd" clip-rule="evenodd" d="M13.3 10H14.3V6H13.3V10Z" fill="#E82808"/>
<path fill-rule="evenodd" clip-rule="evenodd" d="M13.3 6H14.3V1H13.3V6Z" fill="#FF4710"/>
<path fill-rule="evenodd" clip-rule="evenodd" d="M14.3 7H15.3V5H14.3V7Z" fill="#E82808"/>
<path fill-rule="evenodd" clip-rule="evenodd" d="M6.7 11H7.7V8H6.7V11Z" fill="#E82808"/>
<path fill-rule="evenodd" clip-rule="evenodd" d="M7.60001 11H8.60001V9H7.60001V11Z" fill="#E82808"/>
<path fill-rule="evenodd" clip-rule="evenodd" d="M8.60001 12H9.60001V10H8.60001V12Z" fill="#E82808"/>
<path fill-rule="evenodd" clip-rule="evenodd" d="M5.7 10H6.7V6H5.7V10Z" fill="#E82808"/>
<path fill-rule="evenodd" clip-rule="evenodd" d="M4.8 7H5.8V5H4.8V7Z" fill="#E82808"/>
<path fill-rule="evenodd" clip-rule="evenodd" d="M11.4 12H13.3V11H11.4V12Z" fill="#E82808"/>
<path fill-rule="evenodd" clip-rule="evenodd" d="M13.3 11H14.3V10H13.3V11Z" fill="#E82808"/>
<path fill-rule="evenodd" clip-rule="evenodd" d="M14.3 10H15.3V7H14.3V10Z" fill="#E82808"/>
<path fill-rule="evenodd" clip-rule="evenodd" d="M15.2 7H16.2V1H15.2V7Z" fill="#E82808"/>
<path fill-rule="evenodd" clip-rule="evenodd" d="M4.8 18H15.3V17H4.8V18Z" fill="#E82808"/>
<path fill-rule="evenodd" clip-rule="evenodd" d="M4.8 1H15.3V0H4.8V1Z" fill="#E82808"/>
<path fill-rule="evenodd" clip-rule="evenodd" d="M4.8 17H5.8V16H4.8V17Z" fill="#E82808"/>
<path fill-rule="evenodd" clip-rule="evenodd" d="M14.3 17H15.3V16H14.3V17Z" fill="#E82808"/>
<path fill-rule="evenodd" clip-rule="evenodd" d="M8.60001 15H9.60001V12H8.60001V15Z" fill="#E82808"/>
<path fill-rule="evenodd" clip-rule="evenodd" d="M10.5 15H11.5V12H10.5V15Z" fill="#E82808"/>
<path fill-rule="evenodd" clip-rule="evenodd" d="M6.7 8H7.7V6H6.7V8Z" fill="#F3EEFB"/>
<path fill-rule="evenodd" clip-rule="evenodd" d="M7.60001 9H8.60001V8H7.60001V9Z" fill="#F3EEFB"/>
<path fill-rule="evenodd" clip-rule="evenodd" d="M5.7 2H10.4V1H5.7V2Z" fill="#F3EEFB"/>
</svg>
