<svg width="20" height="18" viewBox="0 0 20 18" fill="none" xmlns="http://www.w3.org/2000/svg">
<path fill-rule="evenodd" clip-rule="evenodd" d="M0.952148 3.99999H1.90451V3H0.952148V3.99999Z" fill="#E8B714"/>
<path fill-rule="evenodd" clip-rule="evenodd" d="M0.952148 7.99999H1.90451V7H0.952148V7.99999Z" fill="#E8B714"/>
<path fill-rule="evenodd" clip-rule="evenodd" d="M0 6.99995H0.952361V4H0V6.99995Z" fill="#E8B714"/>
<path fill-rule="evenodd" clip-rule="evenodd" d="M1.90479 2.99974H3.80971V1.99976H1.90479V2.99974Z" fill="#E8B714"/>
<path fill-rule="evenodd" clip-rule="evenodd" d="M1.90479 4.99999H3.80971V4H1.90479V4.99999Z" fill="#E8B714"/>
<path fill-rule="evenodd" clip-rule="evenodd" d="M1.90479 7.00023H3.80971V6.00024H1.90479V7.00023Z" fill="#E8B714"/>
<path fill-rule="evenodd" clip-rule="evenodd" d="M1.90479 6.99997H2.85735V5H1.90479V6.99997Z" fill="#E8B714"/>
<path fill-rule="evenodd" clip-rule="evenodd" d="M1.90479 3.99999H3.80971V3H1.90479V3.99999Z" fill="#FFD91D"/>
<path fill-rule="evenodd" clip-rule="evenodd" d="M1.90479 7.99999H4.76207V7H1.90479V7.99999Z" fill="#FFD91D"/>
<path fill-rule="evenodd" clip-rule="evenodd" d="M0.952148 6.99995H1.90451V4H0.952148V6.99995Z" fill="#FFD91D"/>
<path fill-rule="evenodd" clip-rule="evenodd" d="M14.2856 5.00019H15.238V1.00024H14.2856V5.00019Z" fill="#FFD91D"/>
<path fill-rule="evenodd" clip-rule="evenodd" d="M1.90479 9.00023H4.76207V8.00024H1.90479V9.00023Z" fill="#E8B714"/>
<path fill-rule="evenodd" clip-rule="evenodd" d="M18.0952 3.99999H19.0478V3H18.0952V3.99999Z" fill="#E8B714"/>
<path fill-rule="evenodd" clip-rule="evenodd" d="M18.0952 7.99999H19.0478V7H18.0952V7.99999Z" fill="#E8B714"/>
<path fill-rule="evenodd" clip-rule="evenodd" d="M19.0479 6.99995H20.0002V4H19.0479V6.99995Z" fill="#E8B714"/>
<path fill-rule="evenodd" clip-rule="evenodd" d="M16.1904 2.99974H18.0951V1.99976H16.1904V2.99974Z" fill="#E8B714"/>
<path fill-rule="evenodd" clip-rule="evenodd" d="M16.1904 4.99999H18.0951V4H16.1904V4.99999Z" fill="#E8B714"/>
<path fill-rule="evenodd" clip-rule="evenodd" d="M16.1904 7.00023H18.0951V6.00024H16.1904V7.00023Z" fill="#E8B714"/>
<path fill-rule="evenodd" clip-rule="evenodd" d="M17.1431 6.99997H18.0954V5H17.1431V6.99997Z" fill="#E8B714"/>
<path fill-rule="evenodd" clip-rule="evenodd" d="M16.1904 3.99999H18.0951V3H16.1904V3.99999Z" fill="#FFD91D"/>
<path fill-rule="evenodd" clip-rule="evenodd" d="M15.2378 7.99999H18.0949V7H15.2378V7.99999Z" fill="#FFD91D"/>
<path fill-rule="evenodd" clip-rule="evenodd" d="M18.0952 6.99995H19.0478V4H18.0952V6.99995Z" fill="#FFD91D"/>
<path fill-rule="evenodd" clip-rule="evenodd" d="M15.2378 9.00023H18.0949V8.00024H15.2378V9.00023Z" fill="#E8B714"/>
<path fill-rule="evenodd" clip-rule="evenodd" d="M6.66699 12H8.57171V11H6.66699V12Z" fill="#E8B714"/>
<path fill-rule="evenodd" clip-rule="evenodd" d="M5.71484 11H6.66721V10H5.71484V11Z" fill="#E8B714"/>
<path fill-rule="evenodd" clip-rule="evenodd" d="M4.76221 9.99995H5.71457V7H4.76221V9.99995Z" fill="#E8B714"/>
<path fill-rule="evenodd" clip-rule="evenodd" d="M3.81006 7.00037H4.76242V1.00024H3.81006V7.00037Z" fill="#E8B714"/>
<path fill-rule="evenodd" clip-rule="evenodd" d="M5.71484 16H8.57193V15H5.71484V16Z" fill="#E8B714"/>
<path fill-rule="evenodd" clip-rule="evenodd" d="M11.4282 16H14.2853V15H11.4282V16Z" fill="#E8B714"/>
<path fill-rule="evenodd" clip-rule="evenodd" d="M4.76221 7.00037H5.71457V1.00024H4.76221V7.00037Z" fill="#FFD91D"/>
<path fill-rule="evenodd" clip-rule="evenodd" d="M5.71484 10.0003H6.66721V1.00024H5.71484V10.0003Z" fill="#FFD91D"/>
<path fill-rule="evenodd" clip-rule="evenodd" d="M6.66699 11.0003H7.61935V1.00024H6.66699V11.0003Z" fill="#FFD91D"/>
<path fill-rule="evenodd" clip-rule="evenodd" d="M5.71484 5.99996H6.66721V3H5.71484V5.99996Z" fill="#FBFBFB"/>
<path fill-rule="evenodd" clip-rule="evenodd" d="M7.61865 11.0003H8.57101V1.00024H7.61865V11.0003Z" fill="#FFD91D"/>
<path fill-rule="evenodd" clip-rule="evenodd" d="M8.57178 12.0005H9.52414V1.00024H8.57178V12.0005Z" fill="#FFD91D"/>
<path fill-rule="evenodd" clip-rule="evenodd" d="M9.52344 11.0003H10.476V1.00024H9.52344V11.0003Z" fill="#FFD91D"/>
<path fill-rule="evenodd" clip-rule="evenodd" d="M10.4766 16H11.4289V15H10.4766V16Z" fill="#E8B714"/>
<path fill-rule="evenodd" clip-rule="evenodd" d="M8.57178 16H9.52414V15H8.57178V16Z" fill="#E8B714"/>
<path fill-rule="evenodd" clip-rule="evenodd" d="M10.7693 17.2501H9.23085V17.0002H8.64474H8.46191H7.8757H7.69238H7.10666H6.92334H6.33713H6.1543H5.38477V16.0002H6.1543H6.33713H6.92334H7.10666H7.69238H7.8757H8.46191H8.64474H9.23085V15.0001H10.7693V16.0002H10.7695H11.4289H11.5386H11.7219H12.3081H12.4909H13.0776H13.2605H13.8462H14.03H14.7986V17.0002H14.03H13.8462H13.2605H13.0776H12.4909H12.3081H11.7219H11.5386H11.4289H10.7695H10.7693V17.2501Z" fill="#FFD91D"/>
<path fill-rule="evenodd" clip-rule="evenodd" d="M9.52344 14.9999H10.476V11H9.52344V14.9999Z" fill="#E8B714"/>
<path fill-rule="evenodd" clip-rule="evenodd" d="M10.4766 10.0003H11.4289V1.00024H10.4766V10.0003Z" fill="#FFD91D"/>
<path fill-rule="evenodd" clip-rule="evenodd" d="M11.4282 9.00034H12.3806V1.00024H11.4282V9.00034Z" fill="#FFD91D"/>
<path fill-rule="evenodd" clip-rule="evenodd" d="M12.3813 11.0002H13.3337V8.00024H12.3813V11.0002Z" fill="#E8B714"/>
<path fill-rule="evenodd" clip-rule="evenodd" d="M11.4282 11.0005H12.3806V9.00049H11.4282V11.0005Z" fill="#E8B714"/>
<path fill-rule="evenodd" clip-rule="evenodd" d="M10.4766 12H11.4289V10H10.4766V12Z" fill="#E8B714"/>
<path fill-rule="evenodd" clip-rule="evenodd" d="M12.3813 8.00035H13.3337V1.00024H12.3813V8.00035Z" fill="#FFD91D"/>
<path fill-rule="evenodd" clip-rule="evenodd" d="M13.333 10.0004H14.2854V6.00024H13.333V10.0004Z" fill="#E8B714"/>
<path fill-rule="evenodd" clip-rule="evenodd" d="M13.333 6.00038H14.2854V1.00024H13.333V6.00038Z" fill="#FFD91D"/>
<path fill-rule="evenodd" clip-rule="evenodd" d="M14.2856 6.99997H15.238V5H14.2856V6.99997Z" fill="#E8B714"/>
<path fill-rule="evenodd" clip-rule="evenodd" d="M6.66699 11.0002H7.61935V8.00024H6.66699V11.0002Z" fill="#E8B714"/>
<path fill-rule="evenodd" clip-rule="evenodd" d="M7.61865 11.0005H8.57101V9.00049H7.61865V11.0005Z" fill="#E8B714"/>
<path fill-rule="evenodd" clip-rule="evenodd" d="M8.57178 12H9.52414V10H8.57178V12Z" fill="#E8B714"/>
<path fill-rule="evenodd" clip-rule="evenodd" d="M5.71484 10.0004H6.66721V6.00024H5.71484V10.0004Z" fill="#E8B714"/>
<path fill-rule="evenodd" clip-rule="evenodd" d="M4.76221 6.99997H5.71457V5H4.76221V6.99997Z" fill="#E8B714"/>
<path fill-rule="evenodd" clip-rule="evenodd" d="M11.4282 12H13.3329V11H11.4282V12Z" fill="#E8B714"/>
<path fill-rule="evenodd" clip-rule="evenodd" d="M13.333 11H14.2854V10H13.333V11Z" fill="#E8B714"/>
<path fill-rule="evenodd" clip-rule="evenodd" d="M14.2856 9.99995H15.238V7H14.2856V9.99995Z" fill="#E8B714"/>
<path fill-rule="evenodd" clip-rule="evenodd" d="M15.2378 7.00037H16.1902V1.00024H15.2378V7.00037Z" fill="#E8B714"/>
<path fill-rule="evenodd" clip-rule="evenodd" d="M4.76221 17.9999H15.2384V16.9999H4.76221V17.9999Z" fill="#E8B714"/>
<path fill-rule="evenodd" clip-rule="evenodd" d="M4.76221 0.999985H15.2384V0H4.76221V0.999985Z" fill="#E8B714"/>
<path fill-rule="evenodd" clip-rule="evenodd" d="M4.76221 17.0001H5.71457V16.0001H4.76221V17.0001Z" fill="#E8B714"/>
<path fill-rule="evenodd" clip-rule="evenodd" d="M14.2856 17.0001H15.238V16.0001H14.2856V17.0001Z" fill="#E8B714"/>
<path fill-rule="evenodd" clip-rule="evenodd" d="M8.57178 14.9997H9.52414V11.9998H8.57178V14.9997Z" fill="#E8B714"/>
<path fill-rule="evenodd" clip-rule="evenodd" d="M10.4766 14.9997H11.4289V11.9998H10.4766V14.9997Z" fill="#E8B714"/>
<path fill-rule="evenodd" clip-rule="evenodd" d="M6.66699 8.00021H7.61935V6.00024H6.66699V8.00021Z" fill="#FBFBFB"/>
<path fill-rule="evenodd" clip-rule="evenodd" d="M7.61865 9.00023H8.57101V8.00024H7.61865V9.00023Z" fill="#FBFBFB"/>
<path fill-rule="evenodd" clip-rule="evenodd" d="M5.71484 2.00023H10.4503V1.00024H5.71484V2.00023Z" fill="#FBFBFB"/>
</svg>
