<svg width="19" height="19" viewBox="0 0 19 19" fill="none" xmlns="http://www.w3.org/2000/svg">
<g clip-path="url(#clip0)">
<path d="M6.20441 15.7037H4.02905V18.7178H6.20441V15.7037Z" fill="#666666"/>
<path d="M14.9708 15.7037H12.7954V18.7178H14.9708V15.7037Z" fill="#666666"/>
<path d="M6.20441 15.7037H4.02905V17.6224H6.20441V15.7037Z" fill="#333333"/>
<path d="M14.9708 15.7037H12.7954V17.6224H14.9708V15.7037Z" fill="#333333"/>
<path d="M17.4512 5.14575H10.7126V9.77346H17.4513C17.927 9.77346 18.3126 9.38782 18.3126 8.91208V6.00713C18.3126 5.53143 17.927 5.14575 17.4512 5.14575Z" fill="#428FCE"/>
<path d="M1.54864 5.14575H8.30488V9.77346H1.54864C1.07293 9.77346 0.687256 9.38782 0.687256 8.91208V6.00713C0.687219 5.53143 1.07286 5.14575 1.54864 5.14575Z" fill="#3180B5"/>
<path d="M14.827 0.282227H4.17305C3.18743 0.282227 2.38843 1.08123 2.38843 2.06685V14.7578C2.38843 15.7435 3.18743 16.5425 4.17305 16.5425H14.827C15.8126 16.5425 16.6116 15.7435 16.6116 14.7578V2.06685C16.6116 1.08123 15.8126 0.282227 14.827 0.282227Z" fill="#428FCE"/>
<path d="M3.79064 14.7578V2.06685C3.79064 1.08123 4.58964 0.282227 5.57526 0.282227H4.17305C3.18743 0.282227 2.38843 1.08123 2.38843 2.06685V14.7578C2.38843 15.7435 3.18743 16.5425 4.17305 16.5425H5.57526C4.58964 16.5425 3.79064 15.7435 3.79064 14.7578Z" fill="#3180B5"/>
<path d="M4.39256 15.4984C4.96398 15.4984 5.4272 15.0351 5.4272 14.4637C5.4272 13.8923 4.96398 13.4291 4.39256 13.4291C3.82114 13.4291 3.35791 13.8923 3.35791 14.4637C3.35791 15.0351 3.82114 15.4984 4.39256 15.4984Z" fill="#C3F4EE"/>
<path d="M14.6074 15.4984C15.1788 15.4984 15.642 15.0351 15.642 14.4637C15.642 13.8923 15.1788 13.4291 14.6074 13.4291C14.036 13.4291 13.5728 13.8923 13.5728 14.4637C13.5728 15.0351 14.036 15.4984 14.6074 15.4984Z" fill="#C3F4EE"/>
<path d="M4.63714 14.4637C4.63714 14.8949 4.37304 15.2647 3.99753 15.4201C3.62205 15.2651 3.35791 14.8948 3.35791 14.4637C3.35791 14.0322 3.62202 13.6623 3.99753 13.5073C4.37304 13.6623 4.63714 14.0322 4.63714 14.4637Z" fill="#A5E5DF"/>
<path d="M14.852 14.4637C14.852 14.8949 14.5879 15.2647 14.2124 15.4201C13.8369 15.2651 13.5728 14.8948 13.5728 14.4637C13.5728 14.0322 13.8369 13.6623 14.2124 13.5073C14.5879 13.6623 14.852 14.0322 14.852 14.4637Z" fill="#A5E5DF"/>
<path d="M16.6113 2.76008V11.1871C16.6113 11.7394 16.1636 12.1875 15.6113 12.1875H3.38845C2.83615 12.1875 2.38843 11.7394 2.38843 11.1871V2.76008C2.38843 2.20737 2.83615 1.75964 3.38845 1.75964H15.6113C16.1636 1.75964 16.6113 2.20737 16.6113 2.76008Z" fill="#A5E5DF"/>
<path d="M3.81699 1.75964C3.7997 1.85936 3.79064 1.96208 3.79064 2.06702V12.1875H3.38845C2.83615 12.1875 2.38843 11.7394 2.38843 11.187V2.76008C2.38843 2.20737 2.83615 1.75964 3.38845 1.75964H3.81699Z" fill="#82BFB8"/>
<path d="M15.1829 1.75964C15.2002 1.85936 15.2092 1.96208 15.2092 2.06702V12.1875H15.6114C16.1637 12.1875 16.6114 11.7394 16.6114 11.187V2.76008C16.6114 2.20737 16.1637 1.75964 15.6114 1.75964H15.1829Z" fill="#C3F4EE"/>
<path d="M16.6113 2.76008V4.39333H2.38843V2.76008C2.38843 2.20737 2.83615 1.75964 3.38845 1.75964H15.6113C16.1636 1.75964 16.6113 2.20737 16.6113 2.76008Z" fill="#E6E6E6"/>
<path d="M3.81699 1.75964C3.7997 1.85936 3.79064 1.96208 3.79064 2.06702V4.3933H2.38843V2.76008C2.38843 2.20737 2.83615 1.75964 3.38845 1.75964C3.38845 1.75964 3.81699 1.75964 3.81699 1.75964Z" fill="#B3B3B3"/>
<path d="M16.6115 2.76004V4.3933H15.2092V2.06702C15.2092 1.96204 15.2002 1.85932 15.1829 1.75964H15.6114C16.1637 1.75961 16.6115 2.20733 16.6115 2.76004Z" fill="#F2F2F2"/>
<path d="M11.3732 13.5416H7.56923C6.95737 13.5416 6.46133 14.0377 6.46133 14.6495V15.1642C6.46133 15.9253 5.84435 16.5423 5.08324 16.5423H4.1731H14.827H13.8592C13.0981 16.5423 12.4811 15.9253 12.4811 15.1642V14.6495C12.4811 14.0377 11.9851 13.5416 11.3732 13.5416Z" fill="#666666"/>
<path d="M14.827 0H4.17301C3.03338 0 2.1062 0.927215 2.1062 2.06681V13.5029C2.1062 13.6587 2.23256 13.7851 2.38838 13.7851C2.5442 13.7851 2.67056 13.6587 2.67056 13.5029V12.249C2.87563 12.388 3.12285 12.4694 3.38874 12.4694H15.6113C15.8772 12.4694 16.1244 12.388 16.3294 12.249V14.7578C16.3294 15.5862 15.6554 16.2603 14.827 16.2603H13.8591C13.2549 16.2603 12.7632 15.7686 12.7632 15.1643V14.6496C12.7632 13.8831 12.1396 13.2595 11.3732 13.2595H7.56918C6.80269 13.2595 6.1791 13.8831 6.1791 14.6496V15.1643C6.1791 15.7686 5.68751 16.2603 5.08323 16.2603H4.17308C3.34462 16.2603 2.6706 15.5862 2.6706 14.7578V14.4436C2.6706 14.2877 2.54424 14.1614 2.38842 14.1614C2.2326 14.1614 2.10624 14.2877 2.10624 14.4436V14.7578C2.10624 15.8974 3.03345 16.8246 4.17304 16.8246H14.8269C15.9666 16.8246 16.8937 15.8974 16.8937 14.7578V2.06681C16.8938 0.927215 15.9666 0 14.827 0ZM6.3294 16.2603C6.58701 15.9677 6.74346 15.584 6.74346 15.1644V14.6496C6.74346 14.1943 7.11389 13.8239 7.56918 13.8239H11.3731C11.8284 13.8239 12.1988 14.1944 12.1988 14.6496V15.1644C12.1988 15.584 12.3553 15.9677 12.6129 16.2603H6.3294ZM4.17301 0.564359H14.8269C15.5152 0.564359 16.0964 1.02967 16.2735 1.66213C16.0801 1.54497 15.8534 1.47744 15.6112 1.47744H3.3887C3.14653 1.47744 2.91979 1.54497 2.72637 1.66213C2.90357 1.02967 3.48481 0.564359 4.17301 0.564359ZM15.6113 11.9051H3.3887C2.99271 11.9051 2.67052 11.5829 2.67052 11.1869V4.67548H12.222C12.3778 4.67548 12.5041 4.54913 12.5041 4.3933C12.5041 4.23748 12.3778 4.11112 12.222 4.11112H2.67056V2.75997C2.67056 2.36398 2.99274 2.04179 3.38874 2.04179H15.6113C16.0073 2.04179 16.3294 2.36398 16.3294 2.75997V4.11112H13.3508C13.195 4.11112 13.0686 4.23748 13.0686 4.3933C13.0686 4.54913 13.195 4.67548 13.3508 4.67548H16.3294V11.187C16.3294 11.5829 16.0072 11.9051 15.6113 11.9051Z" fill="black"/>
<path d="M3.88959 15.6807C4.04923 15.7469 4.21849 15.7805 4.39275 15.7805C5.11887 15.7805 5.70958 15.1898 5.70958 14.4637C5.70958 13.7376 5.11884 13.1469 4.39275 13.1469C4.21845 13.1469 4.04912 13.1804 3.89003 13.2465C3.39548 13.4506 3.07593 13.9284 3.07593 14.4637C3.07589 14.9989 3.39548 15.4767 3.88959 15.6807ZM4.10586 13.7679C4.19652 13.7303 4.29308 13.7112 4.39275 13.7112C4.80767 13.7112 5.14522 14.0488 5.14522 14.4637C5.14522 14.8786 4.80767 15.2161 4.39275 15.2161C4.29312 15.2161 4.19659 15.1971 4.10538 15.1592C3.82287 15.0426 3.64029 14.7695 3.64029 14.4637C3.64025 14.1577 3.82279 13.8847 4.10586 13.7679Z" fill="black"/>
<path d="M14.6076 15.7805C15.3337 15.7805 15.9244 15.1898 15.9244 14.4637C15.9244 13.7376 15.3337 13.1469 14.6076 13.1469C14.4333 13.1469 14.264 13.1804 14.1049 13.2465C13.6103 13.4506 13.2908 13.9284 13.2908 14.4637C13.2908 14.9989 13.6104 15.4767 14.1044 15.6807C14.264 15.747 14.4334 15.7805 14.6076 15.7805ZM13.8551 14.4637C13.8551 14.1577 14.0377 13.8847 14.3207 13.7679C14.4114 13.7303 14.508 13.7112 14.6076 13.7112C15.0226 13.7112 15.3601 14.0488 15.3601 14.4637C15.3601 14.8786 15.0226 15.2161 14.6076 15.2161C14.508 15.2161 14.4115 15.1971 14.3203 15.1592C14.0377 15.0426 13.8551 14.7696 13.8551 14.4637Z" fill="black"/>
<path d="M6.20464 16.9453C6.04882 16.9453 5.92246 17.0717 5.92246 17.2275V18.4356H4.31143V17.2275C4.31143 17.0717 4.18507 16.9453 4.02925 16.9453C3.87343 16.9453 3.74707 17.0717 3.74707 17.2275V18.7178C3.74707 18.8736 3.87343 19 4.02925 19H6.2046C6.36042 19 6.48678 18.8736 6.48678 18.7178V17.2275C6.48682 17.0717 6.3605 16.9453 6.20464 16.9453Z" fill="black"/>
<path d="M14.971 16.9453C14.8152 16.9453 14.6888 17.0717 14.6888 17.2275V18.4356H13.0778V17.2275C13.0778 17.0717 12.9514 16.9453 12.7956 16.9453C12.6398 16.9453 12.5134 17.0717 12.5134 17.2275V18.7178C12.5134 18.8736 12.6398 19 12.7956 19H14.971C15.1268 19 15.2531 18.8736 15.2531 18.7178V17.2275C15.2532 17.0717 15.1269 16.9453 14.971 16.9453Z" fill="black"/>
<path d="M17.4514 4.86365C17.2955 4.86365 17.1692 4.99 17.1692 5.14583C17.1692 5.30165 17.2955 5.428 17.4514 5.428C17.7708 5.428 18.0306 5.68784 18.0306 6.00721V8.91216C18.0306 9.23156 17.7707 9.49136 17.4514 9.49136C17.2955 9.49136 17.1692 9.61772 17.1692 9.77354C17.1692 9.92936 17.2955 10.0557 17.4514 10.0557C18.0819 10.0557 18.5949 9.54272 18.5949 8.91216V6.00721C18.5949 5.37661 18.0819 4.86365 17.4514 4.86365Z" fill="black"/>
<path d="M1.54859 5.428C1.70441 5.428 1.83077 5.30165 1.83077 5.14583C1.83077 4.99 1.70441 4.86365 1.54859 4.86365C0.918029 4.86365 0.405029 5.37665 0.405029 6.00721V8.91216C0.405029 9.54272 0.918029 10.0557 1.54859 10.0557C1.70441 10.0557 1.83077 9.92936 1.83077 9.77354C1.83077 9.61772 1.70441 9.49136 1.54859 9.49136C1.22919 9.49136 0.969389 9.23152 0.969389 8.91216V6.00721C0.969389 5.68781 1.22923 5.428 1.54859 5.428Z" fill="black"/>
</g>
<defs>
<clipPath id="clip0">
<rect width="19" height="19" fill="white"/>
</clipPath>
</defs>
</svg>
